<?xml version="1.0" ?>
<!-- Uploaded to: SVG Repo, www.svgrepo.com, Generator: SVG Repo Mixer Tools -->
<svg fill="#000000" width="800px" height="800px" viewBox="0 0 64 64" xmlns="http://www.w3.org/2000/svg">
<g id="swear">
<path d="M5.2861,19.8184A1,1,0,1,0,6.7,18.4043l-.767-.7671L6.7,16.87a1,1,0,0,0-1.4141-1.414l-.7668.7669-.7669-.7669a1,1,0,1,0-1.414,1.414l.7669.7671-.7669.7671a1,1,0,1,0,1.414,1.4141l.7669-.767Z"/>
<path d="M55,14a3,3,0,1,0,3,3A3.0033,3.0033,0,0,0,55,14Zm0,4a1,1,0,1,1,1-1A1.0009,1.0009,0,0,1,55,18Z"/>
<circle cx="45" cy="10" r="1"/>
<path d="M24.249,16.5986a19.2161,19.2161,0,0,1,10.1646.1836,1,1,0,0,0,.5683-1.9179,21.2507,21.2507,0,0,0-11.2309-.2032,1,1,0,0,0,.498,1.9375Z"/>
<circle cx="36" cy="32" r="2"/>
<circle cx="22" cy="32" r="2"/>
<path d="M24.5537,29.7832a.9779.9779,0,0,0,.1192.0068,1,1,0,0,0,.1162-1.9931c-.0357-.0039-3.5572-.4737-4.46-2.4815a1,1,0,0,0-1.8242.82C19.8813,29.1973,24.3638,29.7607,24.5537,29.7832Z"/>
<path d="M32.4248,28.9092a.9994.9994,0,0,0,.9912.8808.9754.9754,0,0,0,.1187-.0068c.19-.0225,4.6728-.5859,6.0488-3.6475a1,1,0,0,0-1.8242-.82c-.7559,1.6817-3.4771,2.3614-4.4614,2.4815A1.0016,1.0016,0,0,0,32.4248,28.9092Z"/>
<polygon points="14.373 46 16.198 46 16.627 45 14.802 45 14.373 46"/>
<path d="M29,11A24.005,24.005,0,0,0,5.4409,39.5847,4.4433,4.4433,0,0,0,5,41.4922v8.0156A4.4975,4.4975,0,0,0,9.4922,54h4.8614c.0144.0125.0212.03.0365.042a24.0047,24.0047,0,0,0,29.22,0c.0153-.0117.0221-.0295.0365-.042h3.8614A4.4975,4.4975,0,0,0,52,49.5078V41.8711A24.0135,24.0135,0,0,0,29,11ZM16.9189,49.3936A.9984.9984,0,0,1,16,50a.9859.9859,0,0,1-.3935-.0811,1,1,0,0,1-.5249-1.3125l.26-.6064H13.5162l-.5973,1.3936A.9984.9984,0,0,1,12,50a.9859.9859,0,0,1-.3935-.0811,1,1,0,0,1-.5249-1.3125l.26-.6064H11a1,1,0,0,1,0-2h1.1981l.4285-1H12a1,1,0,0,1,0-2h1.4838l.5973-1.3936a1,1,0,1,1,1.8378.7872l-.26.6064h1.8247l.5973-1.3936a1,1,0,1,1,1.8378.7872l-.26.6064H20a1,1,0,0,1,0,2H18.8019l-.4285,1H19a1,1,0,0,1,0,2H17.5162ZM29,57a21.7729,21.7729,0,0,1-11.0662-3H40.0663A21.7735,21.7735,0,0,1,29,57Zm.2319-14.6406a1,1,0,1,1,1.5362,1.2812l-5,6a1,1,0,1,1-1.5362-1.2812ZM25,43a1,1,0,1,1,1,1A1,1,0,0,1,25,43Zm5,6a1,1,0,1,1-1-1A1,1,0,0,1,30,49Zm6,0a1,1,0,1,1-1,1A1,1,0,0,1,36,49Zm-1-2V41a1,1,0,0,1,2,0v6a1,1,0,0,1-2,0Zm11.3164-1.0518-1.7584.5862,1.274,1.9109a1,1,0,1,1-1.664,1.1094L43,47.8027l-1.168,1.752a1,1,0,1,1-1.664-1.1094l1.274-1.9109-1.7584-.5862a1,1,0,1,1,.6328-1.8964L42,44.613V43a1,1,0,0,1,2,0v1.613l1.6836-.5612a1,1,0,1,1,.6328,1.8964Zm4.42-7.5664A4.4717,4.4717,0,0,0,47.5078,37H9.4922a4.445,4.445,0,0,0-2.314.6619A21.9922,21.9922,0,1,1,51,35,22.1936,22.1936,0,0,1,50.736,38.3818Z"/>
</g>
</svg>